<svg width="131" height="40" viewBox="0 0 131 40" fill="none" xmlns="http://www.w3.org/2000/svg">
    <path
        d="M12.1877 7.5011C10.6657 7.54658 9.26737 7.83096 7.89451 8.37365C5.76611 9.21527 3.88692 10.6505 2.50315 12.4908C1.03813 14.4384 0.183128 16.7456 0.023649 19.1759C0.00424469 19.4785 0 19.621 0 20.0005C0 20.3801 0.00424469 20.5226 0.023649 20.8252C0.218298 23.7927 1.45229 26.568 3.52976 28.7097C4.69826 29.9139 6.1075 30.878 7.6459 31.5262C8.92658 32.0652 10.2818 32.3848 11.6753 32.4764C11.9779 32.4958 12.1204 32.5 12.5 32.5C12.8796 32.5 13.0221 32.4958 13.3247 32.4764C14.6084 32.3921 15.86 32.1144 17.0509 31.6487C19.206 30.8071 21.1003 29.367 22.4968 27.5103C23.5483 26.112 24.2936 24.5143 24.6823 22.8262C24.8551 22.0773 24.9503 21.3715 24.9927 20.5402C25.0024 20.3456 25.0024 19.6555 24.9927 19.4609C24.9679 18.9752 24.9315 18.5908 24.8702 18.1706C24.4912 15.5838 23.3003 13.1736 21.4702 11.292C19.7857 9.55968 17.6573 8.35667 15.3257 7.81883C14.5835 7.64784 13.8632 7.54961 13.0518 7.50959C12.9275 7.50352 12.3138 7.49746 12.1877 7.5011ZM12.6243 10.8991C14.1154 10.9585 15.5125 11.3539 16.7841 12.0773C17.0382 12.2216 17.2541 12.3586 17.2953 12.4011C17.3547 12.4623 17.3784 12.529 17.3741 12.6236C17.3687 12.7394 17.345 12.777 17.2055 12.8886C16.6173 13.3609 16.0716 13.9267 15.618 14.5342C15.3112 14.9447 15.0668 15.3346 14.817 15.8118C14.7703 15.901 14.7436 15.9313 14.689 15.9592C14.6369 15.9859 14.5957 15.9937 14.5284 15.9913L14.4665 15.9895L14.3095 15.9125C14.0542 15.7876 13.868 15.713 13.6279 15.6402C12.3811 15.2607 11.0338 15.4292 9.93014 16.1029C9.04482 16.6438 8.37416 17.4623 8.01761 18.4386C7.65499 19.4324 7.65499 20.5687 8.01761 21.5625C8.09219 21.7657 8.14738 21.8924 8.25046 22.0937C8.65371 22.882 9.29587 23.5459 10.0763 23.9837C11.2551 24.6446 12.6849 24.7423 13.9493 24.2493C14.0724 24.2014 14.1488 24.1674 14.3095 24.0886L14.4665 24.0116L14.5284 24.0098C14.5957 24.0074 14.6369 24.0152 14.689 24.0419C14.7436 24.0698 14.7703 24.1001 14.817 24.1893C15.0668 24.6665 15.3112 25.0564 15.618 25.4669C16.0716 26.0744 16.6173 26.6402 17.2055 27.1125C17.3104 27.1968 17.3353 27.2241 17.3577 27.2817C17.3765 27.3296 17.3808 27.4248 17.3662 27.4745C17.3396 27.5661 17.3001 27.6097 17.1722 27.691C16.6277 28.0342 16.0855 28.3052 15.5046 28.5247C14.0918 29.0577 12.5552 29.2293 11.0477 29.0225C9.82221 28.8546 8.65189 28.4404 7.59132 27.7989C6.76664 27.3005 6.02443 26.6717 5.39015 25.9338C4.70008 25.1309 4.15434 24.2117 3.78141 23.2233C3.39454 22.1974 3.19807 21.1132 3.19807 20.0005C3.19807 18.3228 3.64558 16.7098 4.50725 15.2861C5.0057 14.4615 5.63452 13.7193 6.37249 13.085C7.17534 12.395 8.09462 11.8493 9.08303 11.4764C9.99442 11.1326 10.9537 10.9391 11.9421 10.8997C12.1186 10.8925 12.4527 10.8925 12.6243 10.8991ZM19.3722 15.5208C19.7396 15.7591 20.0756 16.0404 20.3733 16.3594C21.1531 17.1931 21.6443 18.2597 21.768 19.3881C21.7953 19.6367 21.7989 19.7053 21.7989 20.0127C21.7989 20.3201 21.7953 20.3886 21.768 20.6372C21.7079 21.1842 21.5588 21.7275 21.3314 22.2307C20.9196 23.1384 20.2581 23.9158 19.4255 24.4688C19.2727 24.5707 19.2836 24.5652 19.26 24.5513C19.2157 24.5258 19.0211 24.3942 18.9404 24.3354C18.6845 24.1492 18.4086 23.9043 18.1855 23.666C17.4056 22.8316 16.9145 21.7657 16.7908 20.6372C16.7635 20.3886 16.7598 20.3201 16.7598 20.0127C16.7598 19.7053 16.7635 19.6367 16.7908 19.3881C16.8987 18.4034 17.2874 17.4623 17.9083 16.6807C18.2224 16.2848 18.6251 15.9064 19.0308 15.6251C19.1441 15.5469 19.2697 15.4656 19.2782 15.465C19.283 15.465 19.3255 15.4899 19.3722 15.5208Z"
        fill="white" />
    <path
        d="M38.478 12.67C38.934 12.802 39.36 12.988 39.756 13.228C40.164 13.456 40.542 13.726 40.89 14.038C40.986 14.134 41.034 14.218 41.034 14.29C41.046 14.362 41.052 14.398 41.052 14.398C41.052 14.53 41.004 14.644 40.908 14.74C40.68 14.98 40.458 15.22 40.242 15.46C40.026 15.7 39.81 15.94 39.594 16.18C39.486 16.288 39.366 16.342 39.234 16.342C39.186 16.342 39.138 16.336 39.09 16.324C39.018 16.3 38.958 16.27 38.91 16.234C38.862 16.198 38.814 16.156 38.766 16.108C38.13 15.58 37.428 15.316 36.66 15.316C35.568 15.316 34.674 15.766 33.978 16.666C33.654 17.086 33.462 17.47 33.402 17.818C33.342 18.154 33.312 18.43 33.312 18.646C33.312 18.91 33.342 19.186 33.402 19.474C33.474 19.822 33.606 20.152 33.798 20.464C33.99 20.764 34.218 21.034 34.482 21.274C34.758 21.502 35.064 21.688 35.4 21.832C35.736 21.964 36.084 22.036 36.444 22.048C36.528 22.048 36.612 22.048 36.696 22.048C36.816 22.048 36.954 22.042 37.11 22.03C37.266 22.018 37.446 21.982 37.65 21.922C38.13 21.73 38.538 21.484 38.874 21.184C38.97 21.088 39.084 21.04 39.216 21.04C39.36 21.04 39.486 21.094 39.594 21.202L40.89 22.624C40.998 22.732 41.052 22.852 41.052 22.984C41.052 22.984 41.046 23.02 41.034 23.092C41.034 23.164 40.974 23.254 40.854 23.362C40.83 23.374 40.8 23.398 40.764 23.434L40.548 23.596C40.536 23.62 40.524 23.638 40.512 23.65C40.5 23.65 40.482 23.662 40.458 23.686C39.99 24.07 39.48 24.364 38.928 24.568C38.388 24.772 37.812 24.904 37.2 24.964C37.02 24.976 36.834 24.982 36.642 24.982C36.462 24.982 36.276 24.976 36.084 24.964C35.208 24.88 34.404 24.652 33.672 24.28C32.952 23.896 32.322 23.356 31.782 22.66C31.59 22.42 31.41 22.174 31.242 21.922C31.086 21.67 30.948 21.4 30.828 21.112C30.516 20.332 30.36 19.528 30.36 18.7C30.36 18.484 30.372 18.262 30.396 18.034C30.468 17.314 30.66 16.636 30.972 16C31.284 15.352 31.68 14.782 32.16 14.29C32.64 13.786 33.198 13.378 33.834 13.066C34.47 12.742 35.148 12.538 35.868 12.454C36.144 12.43 36.414 12.418 36.678 12.418C36.846 12.418 37.08 12.43 37.38 12.454C37.68 12.466 38.046 12.538 38.478 12.67ZM53.4502 24.298C53.5222 24.394 53.5582 24.484 53.5582 24.568C53.5582 24.628 53.5462 24.682 53.5222 24.73C53.4502 24.91 53.2942 25 53.0542 25H50.6422C50.4502 25 50.2942 24.922 50.1742 24.766L47.7622 21.49C47.6902 21.418 47.6242 21.382 47.5642 21.382L44.8822 21.4V24.424C44.8582 24.508 44.8342 24.586 44.8102 24.658C44.7982 24.718 44.7742 24.778 44.7382 24.838C44.7142 24.886 44.6722 24.928 44.6122 24.964C44.5522 24.988 44.4622 25 44.3422 25H42.2902C41.9422 25 41.7682 24.814 41.7682 24.442V12.94C41.7682 12.712 41.8102 12.568 41.8942 12.508C41.9782 12.436 42.1282 12.4 42.3442 12.4H48.3562C49.2202 12.4 49.9942 12.604 50.6782 13.012C51.3742 13.42 51.9382 14.002 52.3702 14.758C52.6462 15.262 52.8022 15.694 52.8382 16.054C52.8862 16.414 52.9102 16.684 52.9102 16.864C52.9102 17.212 52.8742 17.566 52.8022 17.926C52.6702 18.514 52.4302 19.036 52.0822 19.492C51.7462 19.948 51.3262 20.344 50.8222 20.68L53.4502 24.298ZM44.8822 18.376H48.4462C48.7462 18.376 48.9982 18.304 49.2022 18.16C49.4062 18.004 49.5562 17.818 49.6522 17.602C49.7482 17.374 49.7962 17.14 49.7962 16.9C49.7962 16.888 49.7902 16.816 49.7782 16.684C49.7782 16.54 49.7182 16.36 49.5982 16.144C49.4902 15.928 49.3342 15.754 49.1302 15.622C48.9262 15.49 48.6922 15.424 48.4282 15.424H44.8822V18.376ZM57.3978 15.352V17.224H62.7978C63.1698 17.224 63.3558 17.404 63.3558 17.764V19.636C63.3558 19.996 63.1698 20.176 62.7978 20.176H57.3978V22.03H64.0578C64.4178 22.03 64.5978 22.21 64.5978 22.57L64.6158 24.478C64.5918 24.826 64.4058 25 64.0578 25L54.8598 24.982C54.6798 24.982 54.5358 24.946 54.4278 24.874C54.3318 24.79 54.2838 24.646 54.2838 24.442V12.958C54.2838 12.598 54.4638 12.418 54.8238 12.418H64.0578C64.4178 12.418 64.5978 12.586 64.5978 12.922L64.6158 14.812C64.5798 15.172 64.3878 15.352 64.0398 15.352H57.3978ZM65.3405 24.514V12.868C65.3405 12.628 65.3765 12.49 65.4485 12.454C65.5205 12.418 65.6765 12.4 65.9165 12.4H70.6865C71.6465 12.4 72.5285 12.574 73.3325 12.922C74.1365 13.258 74.8565 13.792 75.4925 14.524C75.7085 14.764 75.9065 15.028 76.0865 15.316C76.2665 15.592 76.4225 15.886 76.5545 16.198C76.8905 16.978 77.0585 17.788 77.0585 18.628C77.0585 18.892 77.0405 19.156 77.0045 19.42C76.9205 20.188 76.7045 20.908 76.3565 21.58C76.0205 22.252 75.5825 22.84 75.0425 23.344C74.5025 23.836 73.8845 24.226 73.1885 24.514C72.5045 24.802 71.7785 24.958 71.0105 24.982C70.4465 24.994 69.8765 25 69.3005 25C69.0245 25 68.5985 25 68.0225 25C67.4585 24.988 66.7505 24.982 65.8985 24.982C65.7665 24.982 65.6405 24.946 65.5205 24.874C65.4005 24.79 65.3405 24.67 65.3405 24.514ZM68.4545 21.958H70.7765C71.8445 21.958 72.7025 21.514 73.3505 20.626C73.6265 20.242 73.7945 19.888 73.8545 19.564C73.9145 19.228 73.9445 18.934 73.9445 18.682C73.9445 18.502 73.9325 18.31 73.9085 18.106C73.8725 17.806 73.7885 17.53 73.6565 17.278C73.5365 17.026 73.3805 16.786 73.1885 16.558C72.8765 16.186 72.5225 15.904 72.1265 15.712C71.7305 15.508 71.2985 15.406 70.8305 15.406H68.4545V21.958ZM77.7858 24.514V12.886C77.8098 12.742 77.8758 12.628 77.9838 12.544C78.0918 12.448 78.2118 12.4 78.3438 12.4H79.8918C79.9878 12.4 80.0718 12.418 80.1438 12.454C80.2278 12.49 80.2998 12.556 80.3598 12.652L84.6438 18.628L88.9098 12.652C89.0058 12.484 89.1558 12.4 89.3598 12.4H90.9438C91.2918 12.4 91.4658 12.592 91.4658 12.976V24.442C91.4658 24.814 91.2858 25 90.9258 25H88.9278C88.7118 25 88.5678 24.958 88.4958 24.874C88.4238 24.778 88.3878 24.628 88.3878 24.424V18.376L85.6878 22.138C85.5438 22.306 85.3818 22.39 85.2018 22.39H84.0858C83.8938 22.39 83.7258 22.306 83.5818 22.138L80.9178 18.376L80.8998 18.394V24.442C80.8998 24.79 80.7198 24.976 80.3598 25H78.3438C78.1998 24.988 78.0678 24.946 77.9478 24.874C77.8398 24.802 77.7858 24.682 77.7858 24.514ZM104.692 25C104.356 25 104.074 25 103.846 25C103.63 25.012 103.468 25.018 103.36 25.018C103.132 25.018 102.904 25.012 102.676 25C102.544 25 102.436 24.976 102.352 24.928C102.268 24.868 102.196 24.766 102.136 24.622L101.272 22.48C101.26 22.408 101.218 22.372 101.146 22.372H96.2863C96.2143 22.372 96.1723 22.408 96.1603 22.48L95.2783 24.622C95.2303 24.766 95.1643 24.868 95.0803 24.928C95.0083 24.976 94.9063 25 94.7743 25H92.7043C92.5003 25 92.3623 24.94 92.2903 24.82C92.2183 24.7 92.1823 24.598 92.1823 24.514C92.1823 24.418 92.2063 24.328 92.2543 24.244L96.8443 12.76C96.9523 12.52 97.1203 12.4 97.3483 12.4H100.084C100.336 12.4 100.504 12.514 100.588 12.742L104.872 23.452C104.944 23.632 105.016 23.812 105.088 23.992C105.172 24.172 105.22 24.31 105.232 24.406C105.244 24.49 105.25 24.544 105.25 24.568C105.25 24.688 105.214 24.79 105.142 24.874C105.082 24.958 104.932 25 104.692 25ZM100.066 19.474L98.7163 16.072L97.3663 19.474H100.066ZM117.646 24.298C117.718 24.394 117.754 24.484 117.754 24.568C117.754 24.628 117.742 24.682 117.718 24.73C117.646 24.91 117.49 25 117.25 25H114.838C114.646 25 114.49 24.922 114.37 24.766L111.958 21.49C111.886 21.418 111.82 21.382 111.76 21.382L109.078 21.4V24.424C109.054 24.508 109.03 24.586 109.006 24.658C108.994 24.718 108.97 24.778 108.934 24.838C108.91 24.886 108.868 24.928 108.808 24.964C108.748 24.988 108.658 25 108.538 25H106.486C106.138 25 105.964 24.814 105.964 24.442V12.94C105.964 12.712 106.006 12.568 106.09 12.508C106.174 12.436 106.324 12.4 106.54 12.4H112.552C113.416 12.4 114.19 12.604 114.874 13.012C115.57 13.42 116.134 14.002 116.566 14.758C116.842 15.262 116.998 15.694 117.034 16.054C117.082 16.414 117.106 16.684 117.106 16.864C117.106 17.212 117.07 17.566 116.998 17.926C116.866 18.514 116.626 19.036 116.278 19.492C115.942 19.948 115.522 20.344 115.018 20.68L117.646 24.298ZM109.078 18.376H112.642C112.942 18.376 113.194 18.304 113.398 18.16C113.602 18.004 113.752 17.818 113.848 17.602C113.944 17.374 113.992 17.14 113.992 16.9C113.992 16.888 113.986 16.816 113.974 16.684C113.974 16.54 113.914 16.36 113.794 16.144C113.686 15.928 113.53 15.754 113.326 15.622C113.122 15.49 112.888 15.424 112.624 15.424H109.078V18.376ZM118.479 24.532V12.886C118.479 12.742 118.533 12.628 118.641 12.544C118.761 12.448 118.887 12.4 119.019 12.4H121.053C121.413 12.4 121.593 12.586 121.593 12.958V17.242L121.611 17.278L126.039 12.58C126.147 12.46 126.285 12.4 126.453 12.4H129.027C129.135 12.4 129.231 12.43 129.315 12.49C129.399 12.538 129.453 12.598 129.477 12.67C129.513 12.742 129.531 12.814 129.531 12.886C129.531 12.91 129.525 12.958 129.513 13.03C129.513 13.09 129.477 13.162 129.405 13.246L124.689 18.232L130.035 24.262C130.107 24.346 130.143 24.43 130.143 24.514C130.143 24.598 130.089 24.7 129.981 24.82C129.885 24.94 129.741 25 129.549 25H127.029C126.945 25 126.861 24.988 126.777 24.964C126.705 24.928 126.639 24.868 126.579 24.784L122.637 20.374L121.647 21.418C121.611 21.466 121.593 21.52 121.593 21.58V24.424C121.593 24.592 121.545 24.73 121.449 24.838C121.353 24.946 121.215 25 121.035 25H119.073C118.941 25 118.809 24.964 118.677 24.892C118.545 24.82 118.479 24.7 118.479 24.532Z"
        fill="white" />
</svg>