<svg xmlns="http://www.w3.org/2000/svg" xmlns:xlink="http://www.w3.org/1999/xlink" id="body_1" width="216" height="40">
<g transform="matrix(0.022594145 0 0 0.022594145 -0 0.026778143)">
    <path d="M1789.28 0L0 0L0 1767.41L1789.28 1767.41L1789.28 0zM1062.52 1417.61L708.805 1417.61C 588 1417.61 498.122 1393.74 439.17 1346.01C 381.183 1298.28 352.19 1224.78 352.19 1125.5L352.19 1125.5L352.19 680.166C 352.19 580.886 381.183 507.38 439.17 459.649C 498.122 410.964 588 386.621 708.805 386.621L708.805 386.621L1062.52 386.621C 1080.88 386.621 1093.93 390.917 1101.66 399.508C 1110.36 407.145 1114.71 420.033 1114.71 438.17L1114.71 438.17L1114.71 611.434C 1114.71 629.572 1110.36 642.936 1101.66 651.528C 1093.93 659.165 1080.88 662.983 1062.52 662.983L1062.52 662.983L771.14 662.983C 741.18 662.983 718.952 669.188 704.456 681.598C 689.959 693.054 682.711 710.714 682.711 734.58L682.711 734.58L682.711 1075.38C 682.711 1099.24 689.959 1116.91 704.456 1128.36C 718.952 1138.86 741.18 1144.11 771.14 1144.11L771.14 1144.11L1062.52 1144.11C 1080.88 1144.11 1093.93 1148.41 1101.66 1157C 1110.36 1164.64 1114.71 1177.52 1114.71 1195.66L1114.71 1195.66L1114.71 1366.06C 1114.71 1384.2 1110.36 1397.56 1101.66 1406.15C 1093.93 1413.79 1080.88 1417.61 1062.52 1417.61zM1448.59 1116.9L1256.22 1116.9C 1244.15 1116.9 1235.27 1112.74 1229.55 1104.41C 1224.47 1095.03 1221.93 1080.45 1221.93 1060.67L1221.93 1060.67L1221.93 743.56C 1221.93 723.774 1224.47 709.715 1229.55 701.384C 1235.27 692.011 1244.15 687.325 1256.22 687.325L1256.22 687.325L1448.59 687.325C 1460.65 687.325 1469.22 692.011 1474.3 701.384C 1480.01 709.715 1482.87 723.774 1482.87 743.56L1482.87 743.56L1482.87 1060.67C 1482.87 1080.45 1480.01 1095.03 1474.3 1104.41C 1469.22 1112.74 1460.65 1116.9 1448.59 1116.9z" stroke="none" fill="#FFFFFF" fill-rule="nonzero" />
    <path d="M2723.49 1345.88L2404.67 1345.88C 2295.78 1345.88 2214.77 1324.37 2161.64 1281.35C 2109.37 1238.33 2083.24 1172.07 2083.24 1082.59L2083.24 1082.59L2083.24 681.19C 2083.24 591.704 2109.37 525.45 2161.64 482.427C 2214.77 438.545 2295.78 416.604 2404.67 416.604L2404.67 416.604L2723.49 416.604C 2740.04 416.604 2751.8 420.476 2758.77 428.219C 2766.61 435.103 2770.53 446.719 2770.53 463.067L2770.53 463.067L2770.53 619.238C 2770.53 635.586 2766.61 647.633 2758.77 655.377C 2751.8 662.26 2740.04 665.702 2723.49 665.702L2723.49 665.702L2460.86 665.702C 2433.85 665.702 2413.82 671.295 2400.75 682.481C 2387.69 692.806 2381.15 708.724 2381.15 730.235L2381.15 730.235L2381.15 1037.41C 2381.15 1058.92 2387.69 1074.84 2400.75 1085.17C 2413.82 1094.63 2433.85 1099.37 2460.86 1099.37L2460.86 1099.37L2723.49 1099.37C 2740.04 1099.37 2751.8 1103.24 2758.77 1110.98C 2766.61 1117.86 2770.53 1129.48 2770.53 1145.83L2770.53 1145.83L2770.53 1299.42C 2770.53 1315.77 2766.61 1327.81 2758.77 1335.56C 2751.8 1342.44 2740.04 1345.88 2723.49 1345.88z" stroke="none" fill="#FFFFFF" fill-rule="nonzero" />
    <path d="M3213.39 648.923L3213.39 814.128L3311.39 814.128C 3334.04 814.128 3349.28 808.536 3357.12 797.35C 3364.96 785.304 3368.88 770.676 3368.88 753.467L3368.88 753.467L3368.88 709.585C 3368.88 692.376 3364.96 678.178 3357.12 666.993C 3349.28 654.946 3334.04 648.923 3311.39 648.923L3311.39 648.923L3213.39 648.923zM3166.35 1345.88L2965.13 1345.88C 2948.58 1345.88 2936.38 1342.44 2928.54 1335.56C 2921.57 1327.81 2918.09 1315.77 2918.09 1299.42L2918.09 1299.42L2918.09 463.067C 2918.09 446.719 2921.57 435.103 2928.54 428.219C 2936.38 420.476 2948.58 416.604 2965.13 416.604L2965.13 416.604L3400.24 416.604C 3497.8 416.604 3564.87 436.824 3601.46 477.265C 3638.92 516.845 3657.65 568.472 3657.65 632.145L3657.65 632.145L3657.65 691.515C 3657.65 727.654 3651.98 758.63 3640.66 784.443C 3630.21 809.396 3611.48 827.465 3584.47 838.651C 3631.51 843.814 3669.41 862.743 3698.15 895.44C 3727.77 928.137 3742.58 971.59 3742.58 1025.8L3742.58 1025.8L3742.58 1299.42C 3742.58 1315.77 3738.66 1327.81 3730.82 1335.56C 3723.85 1342.44 3712.09 1345.88 3695.54 1345.88L3695.54 1345.88L3493.01 1345.88C 3476.46 1345.88 3464.26 1342.44 3456.42 1335.56C 3449.46 1327.81 3445.97 1315.77 3445.97 1299.42L3445.97 1299.42L3445.97 1101.95C 3445.97 1083.02 3442.05 1069.25 3434.21 1060.65C 3427.24 1051.18 3414.61 1046.45 3396.32 1046.45L3396.32 1046.45L3213.39 1046.45L3213.39 1299.42C 3213.39 1315.77 3209.47 1327.81 3201.63 1335.56C 3194.66 1342.44 3182.9 1345.88 3166.35 1345.88z" stroke="none" fill="#FFFFFF" fill-rule="nonzero" />
    <path d="M4542.46 1345.88L3936.17 1345.88C 3919.62 1345.88 3907.43 1342.44 3899.59 1335.56C 3892.62 1327.81 3889.14 1315.77 3889.14 1299.42L3889.14 1299.42L3889.14 463.067C 3889.14 446.719 3892.62 435.103 3899.59 428.219C 3907.43 420.476 3919.62 416.604 3936.17 416.604L3936.17 416.604L4542.46 416.604C 4559.01 416.604 4570.77 420.476 4577.73 428.219C 4585.57 435.103 4589.49 446.719 4589.49 463.067L4589.49 463.067L4589.49 614.075C 4589.49 630.424 4585.57 642.47 4577.73 650.214C 4570.77 657.097 4559.01 660.539 4542.46 660.539L4542.46 660.539L4181.82 660.539L4181.82 759.92L4436.62 759.92C 4453.17 759.92 4464.93 763.792 4471.9 771.536C 4479.74 778.42 4483.66 790.036 4483.66 806.384L4483.66 806.384L4483.66 944.486C 4483.66 960.834 4479.74 972.88 4471.9 980.624C 4464.93 987.508 4453.17 990.95 4436.62 990.95L4436.62 990.95L4181.82 990.95L4181.82 1101.95L4542.46 1101.95C 4559.01 1101.95 4570.77 1105.82 4577.73 1113.56C 4585.57 1120.45 4589.49 1132.06 4589.49 1148.41L4589.49 1148.41L4589.49 1299.42C 4589.49 1315.77 4585.57 1327.81 4577.73 1335.56C 4570.77 1342.44 4559.01 1345.88 4542.46 1345.88z" stroke="none" fill="#FFFFFF" fill-rule="nonzero" />
    <path d="M5231.44 1345.88L4791.1 1345.88C 4774.55 1345.88 4762.36 1342.44 4754.52 1335.56C 4747.55 1327.81 4744.07 1315.77 4744.07 1299.42L4744.07 1299.42L4744.07 463.067C 4744.07 446.719 4747.55 435.103 4754.52 428.219C 4762.36 420.476 4774.55 416.604 4791.1 416.604L4791.1 416.604L5231.44 416.604C 5340.33 416.604 5420.9 438.115 5473.17 481.137C 5526.31 524.159 5552.88 590.413 5552.88 679.899L5552.88 679.899L5552.88 1082.59C 5552.88 1172.07 5526.31 1238.33 5473.17 1281.35C 5420.9 1324.37 5340.33 1345.88 5231.44 1345.88zM5040.67 663.121L5040.67 1101.95L5196.16 1101.95C 5217.07 1101.95 5232.31 1096.78 5241.89 1086.46C 5252.35 1076.13 5257.57 1060.22 5257.57 1038.7L5257.57 1038.7L5257.57 725.072C 5257.57 703.561 5252.35 688.073 5241.89 678.609C 5232.31 668.283 5217.07 663.121 5196.16 663.121L5196.16 663.121L5040.67 663.121z" stroke="none" fill="#FFFFFF" fill-rule="nonzero" />
    <path d="M5960.67 1345.88L5765.98 1345.88C 5749.43 1345.88 5737.23 1342.44 5729.39 1335.56C 5722.42 1327.81 5718.94 1315.77 5718.94 1299.42L5718.94 1299.42L5718.94 463.067C 5718.94 446.719 5722.42 435.103 5729.39 428.219C 5737.23 420.476 5749.43 416.604 5765.98 416.604L5765.98 416.604L5976.35 416.604C 5990.29 416.604 6001.61 419.615 6010.32 425.638C 6019.9 431.661 6028.61 441.556 6036.45 455.323L6036.45 455.323L6154.05 665.702C 6158.41 673.446 6161.89 679.039 6164.5 682.481C 6167.99 685.922 6172.34 687.643 6177.57 687.643L6177.57 687.643L6189.33 687.643C 6194.56 687.643 6198.48 685.922 6201.09 682.481C 6204.57 679.039 6208.49 673.446 6212.85 665.702L6212.85 665.702L6329.14 455.323C 6336.98 441.556 6345.26 431.661 6353.97 425.638C 6363.55 419.615 6375.31 416.604 6389.25 416.604L6389.25 416.604L6600.92 416.604C 6617.47 416.604 6629.23 420.476 6636.2 428.219C 6644.04 435.103 6647.96 446.719 6647.96 463.067L6647.96 463.067L6647.96 1299.42C 6647.96 1315.77 6644.04 1327.81 6636.2 1335.56C 6629.23 1342.44 6617.47 1345.88 6600.92 1345.88L6600.92 1345.88L6399.7 1345.88C 6383.15 1345.88 6370.95 1342.44 6363.11 1335.56C 6356.14 1327.81 6352.66 1315.77 6352.66 1299.42L6352.66 1299.42L6352.66 845.104L6275.57 985.787C 6267.73 1000.41 6258.15 1011.17 6246.82 1018.05C 6236.37 1024.08 6222.87 1027.09 6206.32 1027.09L6206.32 1027.09L6154.05 1027.09C 6137.5 1027.09 6123.56 1024.08 6112.24 1018.05C 6101.79 1011.17 6092.64 1000.41 6084.8 985.787L6084.8 985.787L6007.71 845.104L6007.71 1299.42C 6007.71 1315.77 6003.79 1327.81 5995.95 1335.56C 5988.98 1342.44 5977.22 1345.88 5960.67 1345.88z" stroke="none" fill="#FFFFFF" fill-rule="nonzero" />
    <path d="M7168.83 687.643L7107.42 883.824L7312.56 883.824L7251.15 687.643C 7247.66 679.899 7243.74 674.306 7239.39 670.865C 7235.9 667.423 7231.55 665.702 7226.32 665.702L7226.32 665.702L7193.66 665.702C 7188.43 665.702 7183.64 667.423 7179.28 670.865C 7175.8 674.306 7172.31 679.899 7168.83 687.643zM7094.35 1299.42C 7094.35 1315.77 7090.43 1327.81 7082.59 1335.56C 7075.62 1342.44 7063.86 1345.88 7047.31 1345.88L7047.31 1345.88L6855.24 1345.88C 6838.69 1345.88 6826.49 1342.44 6818.65 1335.56C 6811.68 1327.81 6808.2 1315.77 6808.2 1299.42L6808.2 1299.42L6808.2 958.683C 6808.2 932.87 6812.12 903.184 6819.96 869.627C 6828.67 836.07 6841.73 796.92 6859.16 752.176L6859.16 752.176L6972.83 459.195C 6978.06 444.568 6985.9 433.812 6996.35 426.929C 7007.68 420.045 7022.05 416.604 7039.47 416.604L7039.47 416.604L7390.96 416.604C 7407.51 416.604 7421.01 420.045 7431.46 426.929C 7442.79 433.812 7451.06 444.568 7456.29 459.195L7456.29 459.195L7569.97 752.176C 7587.39 796.92 7600.02 836.07 7607.86 869.627C 7616.57 903.184 7620.93 932.87 7620.93 958.683L7620.93 958.683L7620.93 1299.42C 7620.93 1315.77 7617.01 1327.81 7609.17 1335.56C 7602.2 1342.44 7590.44 1345.88 7573.89 1345.88L7573.89 1345.88L7376.59 1345.88C 7359.16 1345.88 7346.1 1342.44 7337.39 1335.56C 7329.55 1327.81 7325.63 1315.77 7325.63 1299.42L7325.63 1299.42L7325.63 1118.73L7094.35 1118.73L7094.35 1299.42z" stroke="none" fill="#FFFFFF" fill-rule="nonzero" />
    <path d="M8077.56 648.923L8077.56 814.128L8175.55 814.128C 8198.2 814.128 8213.45 808.536 8221.29 797.35C 8229.13 785.304 8233.05 770.676 8233.05 753.467L8233.05 753.467L8233.05 709.585C 8233.05 692.376 8229.13 678.178 8221.29 666.993C 8213.45 654.946 8198.2 648.923 8175.55 648.923L8175.55 648.923L8077.56 648.923zM8030.52 1345.88L7829.3 1345.88C 7812.74 1345.88 7800.55 1342.44 7792.71 1335.56C 7785.74 1327.81 7782.26 1315.77 7782.26 1299.42L7782.26 1299.42L7782.26 463.067C 7782.26 446.719 7785.74 435.103 7792.71 428.219C 7800.55 420.476 7812.74 416.604 7829.3 416.604L7829.3 416.604L8264.41 416.604C 8361.97 416.604 8429.04 436.824 8465.63 477.265C 8503.09 516.845 8521.81 568.472 8521.81 632.145L8521.81 632.145L8521.81 691.515C 8521.81 727.654 8516.15 758.63 8504.83 784.443C 8494.37 809.396 8475.65 827.465 8448.64 838.651C 8495.68 843.814 8533.57 862.743 8562.32 895.44C 8591.94 928.137 8606.75 971.59 8606.75 1025.8L8606.75 1025.8L8606.75 1299.42C 8606.75 1315.77 8602.83 1327.81 8594.99 1335.56C 8588.02 1342.44 8576.26 1345.88 8559.71 1345.88L8559.71 1345.88L8357.18 1345.88C 8340.63 1345.88 8328.43 1342.44 8320.59 1335.56C 8313.62 1327.81 8310.14 1315.77 8310.14 1299.42L8310.14 1299.42L8310.14 1101.95C 8310.14 1083.02 8306.22 1069.25 8298.38 1060.65C 8291.41 1051.18 8278.78 1046.45 8260.49 1046.45L8260.49 1046.45L8077.56 1046.45L8077.56 1299.42C 8077.56 1315.77 8073.64 1327.81 8065.8 1335.56C 8058.83 1342.44 8047.07 1345.88 8030.52 1345.88z" stroke="none" fill="#FFFFFF" fill-rule="nonzero" />
    <path d="M9002.87 1345.88L8800.34 1345.88C 8783.79 1345.88 8771.6 1342.44 8763.76 1335.56C 8756.79 1327.81 8753.3 1315.77 8753.3 1299.42L8753.3 1299.42L8753.3 463.067C 8753.3 446.719 8756.79 435.103 8763.76 428.219C 8771.6 420.476 8783.79 416.604 8800.34 416.604L8800.34 416.604L9002.87 416.604C 9019.42 416.604 9031.18 420.476 9038.15 428.219C 9045.99 435.103 9049.91 446.719 9049.91 463.067L9049.91 463.067L9049.91 759.92L9102.18 759.92L9236.76 459.195C 9242.86 443.707 9251.13 432.952 9261.59 426.929C 9272.04 420.045 9285.54 416.604 9302.09 416.604L9302.09 416.604L9503.31 416.604C 9518.12 416.604 9528.14 420.476 9533.37 428.219C 9538.59 435.103 9538.16 445.428 9532.06 459.195L9532.06 459.195L9398.78 759.92C 9447.56 762.502 9486.33 779.711 9515.07 811.547C 9544.69 842.523 9559.5 883.824 9559.5 935.451L9559.5 935.451L9559.5 1299.42C 9559.5 1315.77 9555.58 1327.81 9547.74 1335.56C 9540.77 1342.44 9529.01 1345.88 9512.46 1345.88L9512.46 1345.88L9311.24 1345.88C 9294.69 1345.88 9282.49 1342.44 9274.65 1335.56C 9267.68 1327.81 9264.2 1315.77 9264.2 1299.42L9264.2 1299.42L9264.2 1047.74C 9264.2 1033.97 9260.72 1023.22 9253.75 1015.47C 9246.78 1007.73 9236.32 1003.86 9222.39 1003.86L9222.39 1003.86L9049.91 1003.86L9049.91 1299.42C 9049.91 1315.77 9045.99 1327.81 9038.15 1335.56C 9031.18 1342.44 9019.42 1345.88 9002.87 1345.88z" stroke="none" fill="#FFFFFF" fill-rule="nonzero" />
</g>
</svg>